<svg width="1024" height="550" viewBox="0 0 1024 550" fill="none" xmlns="http://www.w3.org/2000/svg">
<g clip-path="url(#clip0_6_9)">
<rect width="1024" height="550" fill="#5256AA"/>
<path d="M264 279.7C271.267 279.7 276.967 281.2 281.1 284.2C285.3 287.133 287.4 291.733 287.4 298C287.4 301.8 286.533 305.1 284.8 307.9C283.067 310.7 280.633 312.9 277.5 314.5C274.433 316.1 270.8 317 266.6 317.2L265.2 312.2C270.067 312.333 274.433 313.2 278.3 314.8C282.167 316.4 285.233 318.633 287.5 321.5C289.767 324.367 290.9 327.767 290.9 331.7C290.9 335.3 290.233 338.4 288.9 341C287.567 343.533 285.767 345.633 283.5 347.3C281.233 348.9 278.667 350.1 275.8 350.9C272.933 351.633 269.967 352 266.9 352H245.4V279.7H264ZM266 311.4C270 311.4 272.9 310.3 274.7 308.1C276.5 305.833 277.4 303.1 277.4 299.9C277.4 296.1 276.233 293.333 273.9 291.6C271.567 289.867 268.433 289 264.5 289H255.1V311.4H266ZM266.4 343C269.067 343 271.5 342.6 273.7 341.8C275.967 341 277.733 339.767 279 338.1C280.333 336.433 281 334.333 281 331.8C281 329 280.233 326.8 278.7 325.2C277.233 323.6 275.333 322.467 273 321.8C270.667 321.067 268.267 320.7 265.8 320.7H255.1V343H266.4ZM298.454 352L330.054 276.7H330.654L362.154 352H351.054L327.454 291.9L334.354 287.4L307.954 352H298.454ZM316.954 324.6H343.854L347.054 333H314.154L316.954 324.6ZM438.371 354.3L382.471 297.6L385.271 298.3L385.471 352H375.771V277.5H376.271L431.571 334.4L429.271 333.9L429.071 279.7H438.671V354.3H438.371ZM469.263 308.8L468.963 312.4L470.263 310.6L499.863 279.7H512.363L482.463 310.7L514.063 352H501.763L475.363 316.9L469.263 322.8V352H459.463V279.7H469.263V308.8ZM546.534 279.7C550.2 279.7 553.567 280.2 556.634 281.2C559.767 282.133 562.467 283.567 564.734 285.5C567.067 287.367 568.867 289.7 570.134 292.5C571.467 295.233 572.134 298.433 572.134 302.1C572.134 304.967 571.7 307.767 570.834 310.5C570.034 313.233 568.667 315.733 566.734 318C564.8 320.2 562.267 322 559.134 323.4C556.067 324.733 552.267 325.4 547.734 325.4H537.034V352H527.334V279.7H546.534ZM547.534 316.1C550.4 316.1 552.767 315.667 554.634 314.8C556.567 313.933 558.067 312.833 559.134 311.5C560.2 310.1 560.967 308.6 561.434 307C561.9 305.4 562.134 303.9 562.134 302.5C562.134 301.033 561.867 299.533 561.334 298C560.867 296.4 560.067 294.933 558.934 293.6C557.867 292.267 556.434 291.167 554.634 290.3C552.9 289.433 550.767 289 548.234 289H537.034V316.1H547.534ZM559.434 321.6L578.334 352H567.134L547.934 321.9L559.434 321.6ZM601.952 326.4C601.952 329.667 602.718 332.6 604.252 335.2C605.852 337.733 607.952 339.733 610.552 341.2C613.152 342.667 616.085 343.4 619.352 343.4C622.752 343.4 625.785 342.667 628.452 341.2C631.118 339.733 633.218 337.733 634.752 335.2C636.285 332.6 637.052 329.667 637.052 326.4V279.7H646.552V326.7C646.552 331.967 645.318 336.567 642.852 340.5C640.452 344.433 637.185 347.467 633.052 349.6C628.985 351.733 624.418 352.8 619.352 352.8C614.285 352.8 609.718 351.733 605.652 349.6C601.585 347.467 598.352 344.433 595.952 340.5C593.552 336.567 592.352 331.967 592.352 326.7V279.7H601.952V326.4Z" fill="white"/>
<path d="M98.3 167.1L258.4 -155.5L335.5 208.9L451.3 2.2L785 470" stroke="#DF467F" stroke-width="60" stroke-miterlimit="10"/>
<path d="M635 436.3L777.1 459.1L799.9 317L850.5 387L827.7 529L685.7 506.2L635 436.3Z" fill="#DF467F"/>
<path d="M820.612 179.827L836.231 182.581L811.922 302.177L802.551 300.525L820.612 179.827ZM790.769 342.054C791.221 339.49 792.483 337.483 794.556 336.032C796.789 334.609 799.107 334.109 801.51 334.532C803.913 334.956 805.84 336.204 807.291 338.277C808.743 340.35 809.243 342.668 808.791 345.231C808.367 347.634 807.119 349.561 805.046 351.013C802.973 352.464 800.735 352.978 798.332 352.554C795.929 352.131 793.922 350.868 792.31 348.767C790.859 346.694 790.345 344.457 790.769 342.054Z" fill="white"/>
<g clip-path="url(#clip1_6_9)">
<path d="M561.132 123.985C553.909 130.633 551.307 142.073 553.881 152.211C556.953 166.394 562.903 170.355 576.298 167.086C588.613 163.762 591.214 158.139 587.727 142.129C585.292 131.769 578.733 121.603 568.853 119.387" fill="#FFCCBE"/>
<path d="M567.303 162.904C568.355 167.76 569.416 172.608 570.486 177.446C571.288 181.213 575.606 183.374 579.176 182.404C583.05 181.324 584.96 177.446 584.13 173.679C583.078 168.841 582.026 163.993 580.975 159.136C580.144 155.369 575.827 153.209 572.257 154.206C568.383 155.258 566.501 159.136 567.303 162.904Z" fill="#FFCCBE"/>
<path d="M554.849 150.272C551.556 150.272 548.014 151.325 548.733 154.677C549.536 158.278 552.885 157.835 556.427 156.782" fill="#FFCCBE"/>
<path d="M586.98 143.264C589.997 141.907 593.677 141.381 594.397 144.732C595.172 148.361 591.934 149.331 588.253 149.857" fill="#FFCCBE"/>
<path d="M552.11 132.461C562.931 138.805 582.109 140.439 592.958 133.736C589.831 129.331 584.296 116.755 575.689 114.29C566.445 111.603 551.252 115.509 551.473 127.254" fill="#2F3160"/>
<path d="M563.484 131.436C561.547 139.109 556.925 146.616 554.822 153.596C545.578 141.159 538.604 122.794 555.209 126.7" fill="#2F3160"/>
<path d="M577.875 134.123C581.473 138.334 585.458 142.184 588.391 146.284C589.028 141.436 589.249 136.118 588.89 131.464C585.43 132.821 581.556 133.625 577.875 134.123Z" fill="#2F3160"/>
<path d="M568.05 159.33C570.458 154.815 576.159 153.735 580.2 156.754C581.113 157.419 581.999 155.896 581.113 155.203C576.298 151.63 569.351 153.153 566.528 158.444C565.975 159.441 567.497 160.355 568.05 159.33Z" fill="#3E4180"/>
<path d="M566.528 151.048C568.355 151.048 568.355 148.223 566.528 148.223C564.702 148.223 564.702 151.048 566.528 151.048Z" fill="#3E4180"/>
<path d="M576.574 148.86C578.401 148.86 578.401 146.034 576.574 146.034C574.748 146.034 574.748 148.86 576.574 148.86Z" fill="#3E4180"/>
<path d="M505.699 146.671C499.61 143.652 501.824 130.495 495.681 128.916C494.241 129.525 495.459 132.96 496.179 134.594C492.332 131.741 488.042 129.581 483.033 129.137C474.786 128.389 477.36 134.733 480.93 139.386C489.703 150.882 496.815 149.58 505.671 153.209" fill="#FFCCBE"/>
<path d="M627.801 115.62C632.09 110.357 624.59 99.2767 629.544 95.3156C631.094 95.2602 631.398 98.8889 631.426 100.689C633.751 96.5067 636.767 92.7395 641.112 90.2465C648.308 86.1469 648.584 92.9611 647.284 98.695C644.073 112.794 637.044 114.567 630.54 121.548" fill="#FFCCBE"/>
<path d="M604.498 181.795C610.365 171.38 633.751 134.206 639.258 118.03C635.328 115.315 629.765 111.465 626.334 108.141C611.14 124.29 600.43 154.04 583.521 166.228C586.039 176.006 572.7 180.244 567.912 171.712C567.884 171.657 567.884 171.629 567.884 171.574C547.82 169.524 523.245 148.084 503.872 138.084C500.745 143.624 498.254 148.361 494.629 153.569C507.387 167.585 542.423 188.581 553.549 197.418C557.313 201.268 568.659 233.899 576.491 255.338C585.098 252.79 592.764 246.585 599.572 240.796C604.221 236.835 614.6 234.785 619.083 230.63C603.031 221.378 604.498 181.795 604.498 181.795Z" fill="#3E8074"/>
<path d="M494.657 153.68C496.843 150.91 498.808 147.696 500.662 144.622C501.852 142.323 504.149 140.134 505.09 137.752" stroke="#BCD2FF" stroke-width="9.3" stroke-miterlimit="10"/>
<path d="M624.396 108.861C629.074 112.573 636.435 117.005 640.227 118.971" stroke="#BCD2FF" stroke-width="9.3" stroke-miterlimit="10"/>
<path d="M577.377 178.249C579.231 201.074 590.772 220.991 599.821 241.516C600.292 242.569 601.814 241.655 601.371 240.63C592.432 220.409 580.975 200.742 579.148 178.249C579.037 177.114 577.266 177.114 577.377 178.249Z" fill="#BCD2FF"/>
<path d="M589.249 208.442C591.546 208.442 591.546 204.897 589.249 204.897C586.98 204.897 586.98 208.442 589.249 208.442Z" fill="#BCD2FF"/>
<path d="M592.598 217.14C594.867 217.14 594.867 213.595 592.598 213.595C590.301 213.595 590.301 217.14 592.598 217.14Z" fill="#BCD2FF"/>
<path d="M596.971 225.616C599.268 225.616 599.268 222.071 596.971 222.071C594.701 222.071 594.701 225.616 596.971 225.616Z" fill="#BCD2FF"/>
<path d="M600.153 233.622C602.45 233.622 602.45 230.076 600.153 230.076C597.884 230.076 597.884 233.622 600.153 233.622Z" fill="#BCD2FF"/>
<path d="M567.801 169.302C569.24 170.604 570.154 171.186 572.008 171.989C572.977 172.516 578.373 174.233 578.816 175.23C579.342 176.449 577.571 180.742 577.238 182.017C576.657 183.817 574.609 187.861 574.609 187.861C571.565 185.867 567.774 182.46 564.619 180.133C562.764 178.859 563.678 177.141 564.702 175.036C565.781 172.848 566.418 172.017 567.801 169.302Z" fill="#BCD2FF"/>
<path d="M583.576 165.867C582.829 167.668 582.22 168.582 580.864 170.078C580.2 170.937 576.021 174.759 576.021 175.839C576.048 177.169 579.452 180.327 580.283 181.352C581.556 182.764 585.07 185.59 585.07 185.59C587.035 182.515 589.083 177.834 590.993 174.399C592.128 172.46 590.578 171.269 588.779 169.801C586.897 168.277 585.956 167.751 583.576 165.867Z" fill="#BCD2FF"/>
<path d="M575.938 178.748C578.013 188.221 578.982 201.407 590.661 202.875C605.854 204.786 621.601 193.235 633.502 207.944L643.132 210.354L642.551 200.853C633.972 190.216 619.885 191.074 607.515 193.734C601.62 195.008 593.816 197.944 588.198 194.565C583.327 191.656 581.168 182.764 580.089 177.862" fill="#D03C75"/>
<path d="M577.626 173.208C576.131 173.513 571.482 174.122 573.198 176.089C574.914 178.249 577.017 184.149 579.231 183.235C581.002 182.848 580.781 178.249 582.386 174.454C583.133 172.238 579.12 172.876 577.626 173.208Z" fill="#DF467F"/>
<path d="M716.831 255.394C727.901 252.984 732.827 251.433 744.865 249.3C751.231 251.183 727.126 267.665 716.941 274.23C712.707 276.418 710.521 271.294 708.722 262.984" fill="#2F3160"/>
<path d="M656.472 340.461C662.671 349.962 665.881 353.978 672.191 364.476C672.717 371.097 648.695 354.449 638.954 347.302C635.383 344.145 639.396 340.239 646.509 335.585" fill="#2F3160"/>
<path d="M576.823 255.255C578.124 257.887 578.235 262.347 581.251 263.178C624.396 274.728 650.328 251.682 671.056 229.827C671.056 229.827 687.578 257.748 707.753 265.587C710.521 262.07 715.917 257.859 718.602 254.286C710.161 240.491 687.329 213.318 678.39 210.132C654.617 200.797 635.743 233.899 619.332 231.683C618.031 231.461 616.897 231.101 615.817 230.63" fill="#3E4180"/>
<path d="M611.86 250.713L575.772 251.322C583.797 294.506 624.95 280.878 653.427 286.972C644.101 297.359 648.944 320.461 644.876 336.776C648.529 339.076 655.448 341.762 659.405 343.508C672.274 327.525 677.588 291.21 675.955 278.8C672.523 256.363 628.714 261.543 611.86 250.713Z" fill="#3E4180"/>
<path d="M574.775 253.344C591.104 250.602 607.459 240.048 618.723 228.913" stroke="#2F3160" stroke-width="13.5" stroke-miterlimit="10"/>
<path d="M595.338 246.336C599.074 245.145 603.225 242.236 606.463 239.189" stroke="#FFCA00" stroke-width="9.3" stroke-miterlimit="10"/>
</g>
<path d="M695.7 279.7C700.967 279.7 705.467 280.6 709.2 282.4C712.933 284.133 715.8 286.667 717.8 290C719.867 293.333 720.9 297.367 720.9 302.1C720.9 304.967 720.467 307.8 719.6 310.6C718.733 313.333 717.333 315.833 715.4 318.1C713.533 320.3 711.067 322.067 708 323.4C704.933 324.733 701.2 325.4 696.8 325.4H686.1V352H676.4V279.7H695.7ZM696.7 316.1C699.567 316.1 701.933 315.633 703.8 314.7C705.667 313.767 707.133 312.6 708.2 311.2C709.267 309.733 710.033 308.2 710.5 306.6C710.967 305 711.2 303.567 711.2 302.3C711.2 300.833 710.967 299.333 710.5 297.8C710.033 296.2 709.233 294.767 708.1 293.5C707.033 292.167 705.6 291.1 703.8 290.3C702.067 289.433 699.9 289 697.3 289H686.1V316.1H696.7ZM730.573 279.7H778.573V289H759.173V352H749.473V289H730.573V279.7Z" fill="white"/>
<path d="M205.1 181.1H216.3L235.9 236.3L234.2 235.6L248.5 198.6L253 211.7L233.9 256.3L205.1 181.1ZM239.8 181.1H249.5L270.7 235.5L268.7 235.1L287.4 181.1H297.7L269.3 256.2L239.8 181.1ZM302.408 216.9C302.408 211.9 303.341 207.2 305.208 202.8C307.141 198.333 309.808 194.4 313.208 191C316.608 187.533 320.508 184.833 324.908 182.9C329.374 180.9 334.174 179.9 339.308 179.9C344.374 179.9 349.108 180.9 353.508 182.9C357.974 184.833 361.908 187.533 365.308 191C368.774 194.4 371.474 198.333 373.408 202.8C375.341 207.2 376.308 211.9 376.308 216.9C376.308 222.033 375.341 226.833 373.408 231.3C371.474 235.767 368.774 239.7 365.308 243.1C361.908 246.433 357.974 249.067 353.508 251C349.108 252.867 344.374 253.8 339.308 253.8C334.174 253.8 329.374 252.867 324.908 251C320.508 249.133 316.608 246.533 313.208 243.2C309.808 239.867 307.141 235.967 305.208 231.5C303.341 227.033 302.408 222.167 302.408 216.9ZM312.408 217C312.408 220.8 313.108 224.367 314.508 227.7C315.908 230.967 317.841 233.867 320.308 236.4C322.774 238.933 325.641 240.933 328.908 242.4C332.174 243.8 335.708 244.5 339.508 244.5C343.241 244.5 346.741 243.8 350.008 242.4C353.274 240.933 356.108 238.933 358.508 236.4C360.908 233.867 362.808 230.967 364.208 227.7C365.608 224.367 366.308 220.767 366.308 216.9C366.308 213.1 365.608 209.533 364.208 206.2C362.808 202.8 360.874 199.833 358.408 197.3C355.941 194.767 353.074 192.8 349.808 191.4C346.541 189.933 343.041 189.2 339.308 189.2C335.508 189.2 331.974 189.933 328.708 191.4C325.441 192.867 322.574 194.867 320.108 197.4C317.641 199.933 315.741 202.9 314.408 206.3C313.074 209.633 312.408 213.2 312.408 217ZM455.25 255.3L399.35 198.6L402.15 199.3L402.35 253H392.65V178.5H393.15L448.45 235.4L446.15 234.9L445.95 180.7H455.55V255.3H455.25ZM474.141 196.6L469.441 194.2C470.841 192.867 471.941 191.033 472.741 188.7C473.608 186.367 473.808 184.033 473.341 181.7L480.741 181C481.141 182.867 481.075 184.833 480.541 186.9C480.008 188.9 479.175 190.767 478.041 192.5C476.908 194.233 475.608 195.6 474.141 196.6ZM489.498 180.7H537.498V190H518.098V253H508.398V190H489.498V180.7Z" fill="white"/>
</g>
<defs>
<clipPath id="clip0_6_9">
<rect width="1024" height="550" fill="white"/>
</clipPath>
<clipPath id="clip1_6_9">
<rect width="269" height="277" fill="white" transform="translate(477 89)"/>
</clipPath>
</defs>
</svg>
